<mxfile host="app.diagrams.net" modified="2021-05-18T07:42:06.225Z" agent="5.0 (Windows NT 10.0; Win64; x64) AppleWebKit/537.36 (KHTML, like Gecko) Chrome/89.0.4389.90 Safari/537.36" etag="6VbRP14S-bYd1-rmf_pV" version="14.6.13" type="github">
  <diagram id="_y4zRp_UmyId21-Hul7x" name="Page-1">
    <mxGraphModel dx="981" dy="526" grid="1" gridSize="10" guides="1" tooltips="1" connect="1" arrows="1" fold="1" page="1" pageScale="1" pageWidth="827" pageHeight="1169" math="0" shadow="0">
      <root>
        <mxCell id="0" />
        <mxCell id="1" parent="0" />
        <mxCell id="7UA-1CkDOlzAfWWB-_jW-8" value="&lt;h1&gt;Heading&lt;/h1&gt;&lt;p&gt;Lorem ipsum dolor sit amet, consectetur adipisicing elit, sed do eiusmod tempor incididunt ut labore et dolore magna aliqua.&lt;/p&gt;" style="text;html=1;strokeColor=none;fillColor=none;spacing=5;spacingTop=-20;whiteSpace=wrap;overflow=hidden;rounded=0;" vertex="1" parent="1">
          <mxGeometry y="20" width="190" height="120" as="geometry" />
        </mxCell>
        <mxCell id="7UA-1CkDOlzAfWWB-_jW-16" value="" style="aspect=fixed;html=1;points=[];align=center;image;fontSize=12;image=img/lib/mscae/Kubernetes.svg;" vertex="1" parent="1">
          <mxGeometry x="750" y="320" width="50" height="48" as="geometry" />
        </mxCell>
        <mxCell id="7UA-1CkDOlzAfWWB-_jW-19" value="服务器运营平台&lt;br&gt;（服务器申请，安装系统，和必要的系统服务）" style="rounded=1;whiteSpace=wrap;html=1;fillColor=#CCFF99;" vertex="1" parent="1">
          <mxGeometry x="160" y="560" width="540" height="60" as="geometry" />
        </mxCell>
        <mxCell id="7UA-1CkDOlzAfWWB-_jW-20" value="Ambari&lt;br&gt;(hadoop相关服务 安装，部署，配置和管理工具)" style="rounded=1;whiteSpace=wrap;html=1;fillColor=#66FF66;" vertex="1" parent="1">
          <mxGeometry x="160" y="500" width="540" height="60" as="geometry" />
        </mxCell>
        <mxCell id="7UA-1CkDOlzAfWWB-_jW-21" value="Zookeeper&lt;br&gt;(分布式协作服务)" style="rounded=1;whiteSpace=wrap;html=1;fillColor=#CCFF99;rotation=-90;" vertex="1" parent="1">
          <mxGeometry x="35" y="290" width="310" height="70" as="geometry" />
        </mxCell>
        <mxCell id="7UA-1CkDOlzAfWWB-_jW-22" value="HDFS&lt;br&gt;(分布式文件系统 )" style="rounded=1;whiteSpace=wrap;html=1;fillColor=#CCFF99;" vertex="1" parent="1">
          <mxGeometry x="270" y="420" width="410" height="60" as="geometry" />
        </mxCell>
        <mxCell id="7UA-1CkDOlzAfWWB-_jW-23" value="MapReduce&lt;br&gt;(分布式计算框架)" style="rounded=1;whiteSpace=wrap;html=1;fillColor=#CCFF99;" vertex="1" parent="1">
          <mxGeometry x="430" y="348" width="200" height="60" as="geometry" />
        </mxCell>
        <mxCell id="7UA-1CkDOlzAfWWB-_jW-24" value="Hive&lt;br&gt;(数据库管理)" style="rounded=1;whiteSpace=wrap;html=1;fillColor=#CCFF99;" vertex="1" parent="1">
          <mxGeometry x="430" y="270" width="120" height="60" as="geometry" />
        </mxCell>
        <mxCell id="7UA-1CkDOlzAfWWB-_jW-25" value="&lt;br&gt;Yarn&lt;br&gt;(资源管理)" style="rounded=1;whiteSpace=wrap;html=1;fillColor=#CCFF99;rotation=-90;" vertex="1" parent="1">
          <mxGeometry x="200" y="280" width="200" height="60" as="geometry" />
        </mxCell>
        <mxCell id="7UA-1CkDOlzAfWWB-_jW-26" value="Spark&lt;br&gt;(数据库管理)" style="rounded=1;whiteSpace=wrap;html=1;fillColor=#CCFF99;" vertex="1" parent="1">
          <mxGeometry x="560" y="270" width="120" height="60" as="geometry" />
        </mxCell>
        <mxCell id="7UA-1CkDOlzAfWWB-_jW-15" value="" style="aspect=fixed;html=1;points=[];align=center;image;fontSize=12;image=img/lib/mscae/HDInsight.svg;" vertex="1" parent="1">
          <mxGeometry x="580" y="426" width="50" height="48" as="geometry" />
        </mxCell>
      </root>
    </mxGraphModel>
  </diagram>
</mxfile>
